# xmcd
#
# Track frame offsets:
#	150
#	16666
#	33109
#	48436
#	63028
#	77168
#	89193
#	105663
#	118130
#	137483
#	151838
#
# Disc length: 2222 seconds
#
# Revision: 0
# Processed by: cddbd v1.5.1PL2 Copyright (c) Steve Scherf et al.
# Submitted via: audiograbber 1.83.01
#
DISCID=8008ac0b
DTITLE=Glenn Miller - In The Digital Mood
DYEAR=1983
DGENRE=Big Band
TTITLE0=In The Mood
TTITLE1=Chattanooga Choo-Choo
TTITLE2=The American Patrol
TTITLE3=String of Pearls
TTITLE4=Little Brown Jug
TTITLE5=I've Got A Gal In Kalamazoo
TTITLE6=Tuxedo Junction
TTITLE7=At Last
TTITLE8=St. Louis Blues March
TTITLE9=Pennsylvania 6-5000
TTITLE10=Moonlight Serenade
EXTD=GRP Gold
EXTT0=
EXTT1=
EXTT2=
EXTT3=
EXTT4=
EXTT5=
EXTT6=
EXTT7=
EXTT8=
EXTT9=
EXTT10=
PLAYORDER=
